# xmcd
#
# Track frame offsets:
# 150
# 15294
# 30450
# 42784
# 54793
# 67882
# 81570
# 92841
# 104779
# 118704
# 133244
# 146027
# 159127
#
# Disc length: 2519 seconds
#
#
# Revision: 0
# Processed by: cddbd v1.5.2PL0 Copyright (c) Steve Scherf et al.
# Submitted via: FreeRIP 2.943 
#
DISCID=a609d50d
DTITLE=bacchus - s-t
DYEAR=2007
DGENRE=Folk
TTITLE0=digging holes
TTITLE1=no thanks
TTITLE2=walk away
TTITLE3=things to come
TTITLE4=kings rule
TTITLE5=lombardos orifice
TTITLE6=instrumental
TTITLE7=chang
TTITLE8=a good life
TTITLE9=get out of my hell
TTITLE10=downer
TTITLE11=evil ways
TTITLE12=battery
EXTD=zz
EXTT0=
EXTT1=
EXTT2=
EXTT3=
EXTT4=
EXTT5=
EXTT6=
EXTT7=
EXTT8=
EXTT9=
EXTT10=
EXTT11=
EXTT12=
PLAYORDER=
